<?xml version="1.0" encoding="utf-8"?>
<!-- Generator: Adobe Illustrator 21.1.0, SVG Export Plug-In . SVG Version: 6.00 Build 0)  -->
<svg version="1.1"
	 id="svg3357" inkscape:version="0.48.5 r10040" sodipodi:docname="icon.svg" xmlns:cc="http://creativecommons.org/ns#" xmlns:dc="http://purl.org/dc/elements/1.1/" xmlns:inkscape="http://www.inkscape.org/namespaces/inkscape" xmlns:rdf="http://www.w3.org/1999/02/22-rdf-syntax-ns#" xmlns:sodipodi="http://sodipodi.sourceforge.net/DTD/sodipodi-0.dtd" xmlns:svg="http://www.w3.org/2000/svg"
	 xmlns="http://www.w3.org/2000/svg" xmlns:xlink="http://www.w3.org/1999/xlink" x="0px" y="0px" viewBox="0 0 24 24"
	 style="enable-background:new 0 0 24 24;" xml:space="preserve">
<style type="text/css">
	.st0{fill:url(#path4204_1_);}
	.st1{fill:url(#path4206_1_);}
	.st2{fill:url(#path4208_1_);}
	.st3{fill:url(#path4210_1_);}
	.st4{fill:url(#path4212_1_);}
	.st5{fill:url(#path4214_1_);}
	.st6{fill:url(#path4216_1_);}
	.st7{fill:url(#path4218_1_);}
	.st8{fill:url(#path4220_1_);}
	.st9{fill:url(#path4222_1_);}
	.st10{opacity:0.5522;fill:url(#path4224_1_);enable-background:new    ;}
	.st11{fill:url(#path4226_1_);}
	.st12{fill:url(#path4228_1_);}
	.st13{fill:#2C3B54;}
	.st14{fill:url(#path4232_1_);}
	.st15{fill:url(#path4234_1_);}
	.st16{fill:url(#path4236_1_);}
	.st17{fill:url(#path4238_1_);}
	.st18{fill:url(#path4240_1_);}
</style>
<sodipodi:namedview  bordercolor="#666666" borderopacity="1.0" id="base" inkscape:current-layer="layer1" inkscape:cx="7.2480563" inkscape:cy="11.624032" inkscape:document-units="px" inkscape:grid-bbox="true" inkscape:pageopacity="0.0" inkscape:pageshadow="2" inkscape:showpageshadow="false" inkscape:window-height="727" inkscape:window-maximized="1" inkscape:window-width="1366" inkscape:window-x="0" inkscape:window-y="19" inkscape:zoom="22.627417" pagecolor="#ffffff" showborder="true" showgrid="true">
	<inkscape:grid  empspacing="5" enabled="true" id="grid4043" snapvisiblegridlinesonly="true" type="xygrid" visible="true">
		</inkscape:grid>
</sodipodi:namedview>
<defs>
	
	
		<inkscape:perspective  id="perspective5496" inkscape:persp3d-origin="372.04724 : 350.78739 : 1" inkscape:vp_x="0 : 526.18109 : 1" inkscape:vp_y="0 : 1000 : 0" inkscape:vp_z="744.09448 : 526.18109 : 1" sodipodi:type="inkscape:persp3d">
		</inkscape:perspective>
	
		<inkscape:perspective  id="perspective5347" inkscape:persp3d-origin="0.5 : 0.33333333 : 1" inkscape:vp_x="0 : 0.5 : 1" inkscape:vp_y="0 : 1000 : 0" inkscape:vp_z="1 : 0.5 : 1" sodipodi:type="inkscape:persp3d">
		</inkscape:perspective>
</defs>
<sodipodi:namedview  bordercolor="#666666" borderopacity="1.0" id="base" inkscape:current-layer="layer1" inkscape:cx="375" inkscape:cy="520" inkscape:document-units="px" inkscape:pageopacity="0.0" inkscape:pageshadow="2" inkscape:window-height="690" inkscape:window-maximized="0" inkscape:window-width="798" inkscape:window-x="20" inkscape:window-y="20" inkscape:zoom="0.35" pagecolor="#ffffff" showgrid="false">
	</sodipodi:namedview>
<g id="layer1" inkscape:groupmode="layer" inkscape:label="Layer 1">
	<g id="g4202" transform="matrix(4.2070673,0,0,4.2070673,-152.93197,-3059.7049)">
		
			<linearGradient id="path4204_1_" gradientUnits="userSpaceOnUse" x1="11.4018" y1="741.0382" x2="12.1044" y2="738.6343" gradientTransform="matrix(4.2071 0 0 -4.2071 -9.5507 3846.1775)">
			<stop  offset="0" style="stop-color:#0F3060"/>
			<stop  offset="0.2712" style="stop-color:#0575CE"/>
			<stop  offset="0.7327" style="stop-color:#0575CE"/>
			<stop  offset="1" style="stop-color:#0F3060"/>
		</linearGradient>
		
			<path id="path4204" inkscape:export-filename="/home/emcho/storage/images/sc_logo/sc_logo136x203.png" inkscape:export-xdpi="19.25" inkscape:export-ydpi="19.25" sodipodi:nodetypes="csssssssssssssssssssssssssssssssssccssssssssssccsssssssssccsssssssssscssssssssssccssssssscssssssssc" class="st0" d="
			M37.4,732.7C37.4,732.6,37.4,732.6,37.4,732.7c0-0.1-0.1-0.3-0.1-0.4c0-0.3-0.1-0.3-0.1-0.6c0-0.2,0-0.2,0-0.3
			c0.1-0.3,0.2-0.4,0.3-0.4c0.1,0,0.2,0,0.3,0c0,0,0.1,0.1,0.2,0.1c0.1,0,0.2,0.1,0.2,0.1c0,0,0.1,0.1,0.1,0.1c0.1,0,0.1,0,0.1,0
			c0,0,0.1-0.1,0.1-0.2c0.2-0.2,0-0.2,0-0.2c-0.1,0-0.1,0-0.2-0.1c-0.1-0.2-0.2-0.3-0.2-0.6c0-0.3,0-0.5,0.1-0.6
			c0-0.1,0.2-0.1,0.2-0.2c0.1,0,0.6-0.1,0.6-0.1c0,0-0.1-0.3,0-0.6c0-0.1,0.1-0.3,0.1-0.3c0,0,0.4-0.2,0.5-0.2
			c0.1-0.1,0.4-0.2,0.4-0.3c0-0.3,0-0.4,0.1-0.4c0,0,0.2,0.3,0.1,0.7c0,0.1-0.1,0.2-0.2,0.3c0,0,0,0.1,0.1,0.1
			c0,0.1,0.1,0.2,0.1,0.3c0,0.1,0,0.2,0,0.3c0,0,0,0,0,0c0,0,0,0,0.1,0c0,0,0.1,0,0.2,0c0.1,0,0.1,0,0.2,0c0.1,0,0.6,0.1,0.3,1.4
			c-0.1,0.4-0.6,1-0.6,0.9l-0.1-0.1l-0.2,0.2c-0.1,0.1-0.2,0.2-0.2,0.2c-0.1,0.1-0.2,0.2-0.3,0.2c0,0,0,0-0.1,0
			c-0.1,0-0.2,0.1-0.4,0.1c-0.6,0-0.4,0-0.9-0.3c0,0-0.1,0.1-0.2,0.2c-0.1,0.1-0.2,0.2-0.2,0.3c0,0,0,0.1-0.1,0.1
			C37.5,732.4,37.4,732.6,37.4,732.7C37.4,732.7,37.4,732.7,37.4,732.7C37.4,732.7,37.4,732.7,37.4,732.7L37.4,732.7z M38.1,731.6
			c0.1,0,0.1,0,0.2-0.1c0.1,0,0.1-0.1,0.1-0.1c0.1,0-0.1-0.1-0.1-0.1c-0.1,0-0.2-0.1-0.2-0.1s-0.1-0.1-0.1-0.1c0,0,0,0,0,0.1
			c0,0.1,0,0.2,0,0.3c0,0,0,0.1,0,0.1c0,0.1,0,0.1,0.1,0.1C37.9,731.6,37.9,731.6,38.1,731.6L38.1,731.6z M40.9,729.6
			c0-0.2,0-0.4-0.1-0.5c-0.3-0.2-0.3,0-0.4,0c0,0.1,0,0.1,0,0.2c0.1,0.2,0.2,0.5,0.2,0.6c0.1,0.2,0.1,0.3,0.1,0.5c0,0.1,0,0.1,0,0.1
			c0,0-0.4,0.1-0.5,0.2c-0.1,0,0,0.1,0,0.2c0,0-0.1,0.3-0.1,0.3C40.3,731.8,41,730.4,40.9,729.6z M40.3,730.8
			C40.3,730.7,40.3,730.7,40.3,730.8c0.1,0,0.1,0,0.1,0c0,0,0.1,0,0.1,0c0,0,0.1,0,0.1-0.1c0,0-0.4-0.3-0.4-0.3
			c-0.6-0.3-0.9-0.3-1-0.3c-0.3,0.1-0.6,0.2-0.6,0.3c0,0,0.5-0.2,0.9,0c0.1,0,0.2,0.1,0.3,0.2c0.1,0.1,0.2,0.2,0.2,0.2
			C40,730.8,40.1,730.8,40.3,730.8L40.3,730.8z M39.6,729.6c0.2,0,0.5-0.4,0.4-0.4c0,0,0.1-0.1,0-0.1c-0.3-0.1-0.3-0.4-0.3-0.4
			c0,0-0.5,0.2-0.6,0.3c-0.1,0,0,0.3,0.1,0.4c0,0.1,0.2,0.2,0.2,0.2C39.5,729.6,39.6,729.6,39.6,729.6L39.6,729.6z M40,728.4
			c0.1-0.1,0.4-0.5,0.3-0.6c-0.1-0.6-0.2-0.2-0.2-0.2c0,0,0,0.1,0,0.1c0,0,0,0.1,0,0.1c0,0,0,0.1,0,0.1c0,0,0,0.1,0,0.1
			c0,0,0,0.1-0.1,0.2C39.9,728.4,39.9,728.5,40,728.4C39.9,728.5,39.9,728.5,40,728.4L40,728.4z"/>
		
			<linearGradient id="path4206_1_" gradientUnits="userSpaceOnUse" x1="11.2824" y1="740.4265" x2="10.4491" y2="739.0173" gradientTransform="matrix(4.2071 0 0 -4.2071 -9.5507 3846.1775)">
			<stop  offset="0" style="stop-color:#092D61"/>
			<stop  offset="1" style="stop-color:#0575CE"/>
		</linearGradient>
		<path id="path4206" sodipodi:nodetypes="ccssc" class="st1" d="M37.4,732.7c0.1-0.6,0.3-0.7,0.6-0.9c-0.1,0-0.3-0.2-0.3-0.3
			c0-0.2,0-0.6-0.2-0.5C37.1,731.3,37.3,732.3,37.4,732.7z"/>
		
			<linearGradient id="path4208_1_" gradientUnits="userSpaceOnUse" x1="11.5174" y1="740.1962" x2="12.0015" y2="743.3461" gradientTransform="matrix(4.2071 0 0 -4.2071 -9.5507 3846.1775)">
			<stop  offset="0" style="stop-color:#0F3060"/>
			<stop  offset="0.457" style="stop-color:#0575CE"/>
			<stop  offset="0.7383" style="stop-color:#0575CE"/>
			<stop  offset="1" style="stop-color:#0F3060"/>
		</linearGradient>
		<path id="path4208" sodipodi:nodetypes="ccccsc" class="st2" d="M38,731.7c0.2,0.2,0.4,0.3,0.5,0.4c1.3,0.1,1.6-0.7,1.6-1.2
			c-0.1,0-0.3,0-0.4-0.2c-0.3,0.1-1.1,0.3-1.1,0.4C38.6,731.3,38.3,731.5,38,731.7L38,731.7z"/>
		
			<linearGradient id="path4210_1_" gradientUnits="userSpaceOnUse" x1="37.9296" y1="729.9293" x2="36.0301" y2="738.019" gradientTransform="matrix(1.0338 0 0 -1.0338 1.4158 1485.6854)">
			<stop  offset="0" style="stop-color:#FF8000"/>
			<stop  offset="0.6627" style="stop-color:#FFF4E1"/>
			<stop  offset="0.75" style="stop-color:#FFF4E1"/>
			<stop  offset="1" style="stop-color:#FF8400"/>
		</linearGradient>
		
			<path id="path4210" inkscape:export-filename="/home/emcho/storage/images/sc_logo/sc_logo136x203.png" inkscape:export-xdpi="19.25" inkscape:export-ydpi="19.25" sodipodi:nodetypes="cssssss" class="st3" d="
			M40.2,731.4c0.8-0.6,0.7-1.7,0.7-1.8c0-0.2-0.2-0.7-0.4-0.6c-0.4,0.2,0.3,1,0.2,1.5c0,0.1-0.3,0.2-0.5,0.2c0,0,0,0.3-0.1,0.5
			C40,731.3,40.2,731.4,40.2,731.4L40.2,731.4z"/>
		
			<linearGradient id="path4212_1_" gradientUnits="userSpaceOnUse" x1="12.1795" y1="740.7241" x2="10.5216" y2="740.3615" gradientTransform="matrix(4.2071 0 0 -4.2071 -9.5507 3846.1775)">
			<stop  offset="0" style="stop-color:#FFFFFF"/>
			<stop  offset="1" style="stop-color:#FFFFFF;stop-opacity:0"/>
		</linearGradient>
		<path id="path4212" sodipodi:nodetypes="ccc" class="st4" d="M40.3,731.3c1-1,0.5-2.7,0.1-2.2C40.9,729,41,730.6,40.3,731.3z"/>
		
			<linearGradient id="path4214_1_" gradientUnits="userSpaceOnUse" x1="35.5605" y1="729.9048" x2="34.3672" y2="727.97" gradientTransform="matrix(1.0338 0 0 -1.0338 1.4158 1485.6854)">
			<stop  offset="0" style="stop-color:#FFC768"/>
			<stop  offset="0.3784" style="stop-color:#FF8400"/>
			<stop  offset="0.7742" style="stop-color:#FF8400"/>
			<stop  offset="1" style="stop-color:#FFC768"/>
		</linearGradient>
		
			<path id="path4214" inkscape:export-filename="/home/emcho/storage/images/sc_logo/sc_logo136x203.png" inkscape:export-xdpi="19.25" inkscape:export-ydpi="19.25" sodipodi:nodetypes="csszs" class="st5" d="
			M38.4,731.3c0,0-0.3-0.1-0.5-0.3c0,0,0,0.3,0,0.4c0,0.1,0.1,0.2,0.2,0.2C38,731.6,38.3,731.5,38.4,731.3z"/>
		
			<linearGradient id="path4216_1_" gradientUnits="userSpaceOnUse" x1="10.8481" y1="741.1648" x2="11.0813" y2="739.8161" gradientTransform="matrix(4.3476 0 0 -4.2653 -8.0302 3890.1628)">
			<stop  offset="0" style="stop-color:#FFFFFF"/>
			<stop  offset="1" style="stop-color:#FFFFFF;stop-opacity:0"/>
		</linearGradient>
		<path id="path4216" sodipodi:nodetypes="ccccc" class="st6" d="M38.1,730.4c-0.1-0.6,0.1-1,1-1.1c0,0,1-0.3,1.3-0.3
			c-0.1,0.1,0,0.5,0.1,0.8C40.5,729.8,39.7,730,38.1,730.4L38.1,730.4z"/>
		
			<linearGradient id="path4218_1_" gradientUnits="userSpaceOnUse" x1="36.7539" y1="730.7869" x2="38.1251" y2="728.0375" gradientTransform="matrix(1.0338 0 0 -1.0338 1.4158 1485.6854)">
			<stop  offset="0" style="stop-color:#FF8000"/>
			<stop  offset="0.3414" style="stop-color:#FFC768"/>
			<stop  offset="0.712" style="stop-color:#FFC768"/>
			<stop  offset="1" style="stop-color:#FF8400"/>
		</linearGradient>
		
			<path id="path4218" inkscape:export-filename="/home/emcho/storage/images/sc_logo/sc_logo136x203.png" inkscape:export-xdpi="19.25" inkscape:export-ydpi="19.25" sodipodi:nodetypes="csssss" class="st7" d="
			M38.6,730.3c0.1,0,0.4-0.1,0.8,0c0.2,0.1,0.4,0.3,0.5,0.4c0.2,0.2,0.7,0,0.8,0c0,0-0.6-0.6-1.1-0.6
			C38.8,730,38.4,730.4,38.6,730.3L38.6,730.3z"/>
		
			<linearGradient id="path4220_1_" gradientUnits="userSpaceOnUse" x1="37.3147" y1="732.9808" x2="38.8064" y2="733.1594" gradientTransform="matrix(1.0338 0 0 -1.0338 1.4158 1485.6854)">
			<stop  offset="0" style="stop-color:#FF8000"/>
			<stop  offset="0.5" style="stop-color:#FFF4E1"/>
			<stop  offset="0.75" style="stop-color:#FFF4E1"/>
			<stop  offset="1" style="stop-color:#FF8400"/>
		</linearGradient>
		
			<path id="path4220" inkscape:export-filename="/home/emcho/storage/images/sc_logo/sc_logo136x203.png" inkscape:export-xdpi="19.25" inkscape:export-ydpi="19.25" sodipodi:nodetypes="csss" class="st8" d="
			M40.2,727.4c0,0.2-0.1,0.7-0.3,1c-0.1,0.1,0.3-0.2,0.4-0.5C40.3,727.8,40.2,727.3,40.2,727.4L40.2,727.4z"/>
		
			<linearGradient id="path4222_1_" gradientUnits="userSpaceOnUse" x1="37.11" y1="731.564" x2="35.3172" y2="733.9373" gradientTransform="matrix(1.0338 0 0 -1.0338 1.4158 1485.6854)">
			<stop  offset="0" style="stop-color:#FF8000"/>
			<stop  offset="0.3414" style="stop-color:#FFC768"/>
			<stop  offset="0.712" style="stop-color:#FFC768"/>
			<stop  offset="1" style="stop-color:#FF8400"/>
		</linearGradient>
		
			<path id="path4222" inkscape:export-filename="/home/emcho/storage/images/sc_logo/sc_logo136x203.png" inkscape:export-xdpi="19.25" inkscape:export-ydpi="19.25" sodipodi:nodetypes="cssscsc" class="st9" d="
			M39.5,729.6c0.2-0.1,0.4-0.3,0.5-0.5c0,0-0.1,0-0.2-0.1c-0.1-0.1-0.1-0.3-0.2-0.3c-0.3,0-0.6,0.3-0.6,0.3s0,0.3,0.1,0.4
			C39.3,729.5,39.5,729.6,39.5,729.6z"/>
		
			<linearGradient id="path4224_1_" gradientUnits="userSpaceOnUse" x1="11.861" y1="740.8768" x2="11.4981" y2="741.3949" gradientTransform="matrix(4.2071 0 0 -4.2071 -9.5507 3846.1775)">
			<stop  offset="0" style="stop-color:#FFFFFF"/>
			<stop  offset="1" style="stop-color:#FFFFFF;stop-opacity:0"/>
		</linearGradient>
		<path id="path4224" sodipodi:nodetypes="ccc" class="st10" d="M39.8,728.9c0.1,0.2,0.4,0.2,0.3-0.3
			C40.2,728.7,40.1,728.9,39.8,728.9z"/>
		
			<linearGradient id="path4226_1_" gradientUnits="userSpaceOnUse" x1="11.4003" y1="740.8856" x2="12.625" y2="741.2726" gradientTransform="matrix(4.2071 0 0 -4.2071 -9.5507 3846.1775)">
			<stop  offset="0" style="stop-color:#FFFFFF"/>
			<stop  offset="1" style="stop-color:#FFFFFF;stop-opacity:0"/>
		</linearGradient>
		<path id="path4226" sodipodi:nodetypes="csccsc" class="st11" d="M39.5,729.6c-0.1-0.1-0.2-0.2-0.3-0.3c-0.1-0.1-0.1-0.7,0-0.8
			c0.1-0.1,0.3-0.3,0.5-0.4c-0.5,0.5-0.3,1.3,0.1,1.3C39.8,729.4,39.5,729.6,39.5,729.6L39.5,729.6z"/>
		
			<linearGradient id="path4228_1_" gradientUnits="userSpaceOnUse" x1="11.4005" y1="740.3347" x2="10.7816" y2="740.7721" gradientTransform="matrix(4.2071 0 0 -4.2071 -9.5507 3846.1775)">
			<stop  offset="0" style="stop-color:#FFFFFF"/>
			<stop  offset="1" style="stop-color:#FFFFFF;stop-opacity:0"/>
		</linearGradient>
		<path id="path4228" sodipodi:nodetypes="ccc" class="st12" d="M37.9,731c0.1,0.1,0.5,0.4,0.6,0.3C38.2,731.8,37.7,731.4,37.9,731z
			"/>
		
			<path id="path4230" inkscape:export-filename="/home/emcho/storage/images/sc_logo/sc_logo136x203.png" inkscape:export-xdpi="19.25" inkscape:export-ydpi="19.25" sodipodi:nodetypes="ccsssccssscccsssscscsccsssssccssssssccsssccssssccsscssssssssssssccsssccssssssccssssssssssssscsssscssscssc" class="st13" d="
			M39.5,728.3c-0.1,0.1-0.2,0.1-0.2,0.2c-0.1,0.2-0.1,0.4-0.1,0.4c0.2-0.2,0.5-0.2,0.6-0.3c0.3-0.2,0.4-0.8,0.3-0.7
			C39.9,728.1,39.6,728.2,39.5,728.3z M38,731.7c0,0-0.3-0.2-0.3-0.2c0-0.5,0-0.5-0.1-0.5c-0.1,0-0.3,0.2-0.4,0.7
			c0,0.3,0.1,0.9,0.1,0.9C37.5,732.3,37.5,732.1,38,731.7L38,731.7z M40.9,729.6c0-0.4-0.2-0.6-0.4-0.6c-0.1,0-0.1,0.2-0.1,0.3
			c0,0.1,0.2,0.5,0.2,0.5c0,0.1,0.2,0.5,0.1,0.7c0,0.2-0.6,0.2-0.6,0.2s0,0.2,0,0.3c0,0.1-0.1,0.2-0.1,0.2s0.1,0.1,0.1,0.1
			S40.9,731,40.9,729.6L40.9,729.6z M40.3,730.7c0,0,0.3-0.1,0.2-0.1c-0.1-0.1-0.2-0.1-0.3-0.2c-0.9-0.7-1.7-0.1-1.7-0.1
			c0.1,0,0.3-0.1,0.5-0.1c0.2,0,0.4,0.1,0.7,0.4C39.8,730.7,39.9,730.8,40.3,730.7L40.3,730.7z M39.9,729.3c0,0,0.1-0.2,0.1-0.2
			c-0.2-0.1-0.3-0.2-0.3-0.3c0-0.1,0-0.1-0.1-0.1c-0.4,0.1-0.5,0.2-0.5,0.2c-0.1,0.1,0,0.3,0,0.3c0,0.1,0.2,0.3,0.3,0.3
			C39.6,729.6,39.9,729.3,39.9,729.3L39.9,729.3z M40.2,728.6c0-0.1-0.1-0.2-0.1-0.2c0,0-0.2,0.1-0.2,0.2c-0.1,0.1,0,0.3,0.1,0.3
			C40.1,729.1,40.2,728.8,40.2,728.6L40.2,728.6z M40,728.3c0.1-0.1,0.2-0.2,0.2-0.4c0-0.1,0-0.1,0-0.3c0,0,0-0.1,0-0.1
			C40.2,727.8,40.1,728,40,728.3C39.9,728.5,39.9,728.4,40,728.3L40,728.3z M38.2,729.9c-0.1,0.4,0.2,0.9,0.4,0.9
			c0.2,0,0.8-0.1,1-0.2c0.1,0,0.1,0-0.1-0.2c-0.3-0.2-0.5-0.2-0.7-0.2c-0.2,0-0.4,0.1-0.4,0.1c0.1-0.1,0.3-0.3,0.7-0.3
			c0.2,0,0.4,0,0.7,0.1c0.4,0.1,0.6,0.4,0.7,0.4c0.1,0,0.1,0,0.1-0.1c0-0.1-0.2-0.8-0.3-1c-0.1-0.3,0-0.5,0-0.4
			c-0.2,0-0.3,0.1-0.4,0.2c-0.3,0.3-0.5,0.3-0.5,0.3c-0.1,0-0.2-0.1-0.3-0.2c0,0-0.7,0.1-0.8,0.2C38.4,729.6,38.2,729.7,38.2,729.9
			L38.2,729.9z M38,731.6c0.2-0.1,0.4-0.3,0.4-0.3c-0.1,0-0.5-0.3-0.5-0.3c0,0.1,0,0.3,0,0.4C37.8,731.5,37.9,731.6,38,731.6
			L38,731.6z M38.7,731c0,0.1-0.1,0.4-0.6,0.7c0,0,0.5,0.3,0.5,0.3c1.6,0.1,1.6-1.2,1.6-1.2c0,0-0.1,0-0.3-0.1c0,0-0.1,0-0.1-0.1
			c0,0,0,0-0.1,0C39.4,730.7,38.6,731,38.7,731L38.7,731z M38.1,730.4c-0.3-1,0.7-1.1,0.9-1.1c0.1,0,0.1,0,0.1-0.2
			c0-0.2,0-0.3,0-0.5c0-0.1,0-0.2,0.1-0.3c0.1-0.1,0.3-0.2,0.4-0.2c0.3-0.1,0.4-0.3,0.5-0.4c0-0.1,0.1-0.3,0-0.5c0,0,0,0,0.1,0.4
			c0.1,0.2,0,0.4-0.2,0.6c0,0,0,0,0,0.1c0.1,0.1,0.1,0.3,0.1,0.4c0,0.1,0,0.2,0,0.2c0,0,0.3,0,0.4,0.1c0.1,0.1,0.3,0.2,0.2,0.8
			c-0.1,1.3-0.7,1.6-0.7,1.6c0,0-0.1-0.1-0.1-0.1c-0.4,0.8-1.1,0.7-1.5,0.7c-0.1,0-0.4-0.3-0.5-0.3c-0.4,0.3-0.5,0.3-0.6,1
			c0,0-0.2-0.4-0.2-1c0-0.6,0.3-0.8,0.5-0.8c0.2,0,0.2,0.1,0.5,0.3c0,0,0.2,0.1,0.2,0.1c0.1,0,0.1-0.2,0.2-0.3c0-0.1,0-0.1-0.1-0.1
			C38.4,730.9,38.2,730.7,38.1,730.4L38.1,730.4z"/>
		
			<linearGradient id="path4232_1_" gradientUnits="userSpaceOnUse" x1="36.4046" y1="730.2496" x2="36.7204" y2="729.149" gradientTransform="matrix(1.0338 0 0 -1.0338 1.4158 1485.6854)">
			<stop  offset="0" style="stop-color:#212A3A"/>
			<stop  offset="1" style="stop-color:#404E67;stop-opacity:0"/>
		</linearGradient>
		
			<path id="path4232" inkscape:export-filename="/home/emcho/storage/images/sc_logo/sc_logo136x203.png" inkscape:export-xdpi="19.25" inkscape:export-ydpi="19.25" sodipodi:nodetypes="czssss" class="st14" d="
			M38.7,731c0.2-0.1,1-0.4,1-0.4c0,0-1,0.4-1.2,0.3c0,0,0.1,0,0.1,0.1c0,0,0,0.2-0.1,0.3C38.5,731.2,38.6,731,38.7,731L38.7,731z"/>
		
			<linearGradient id="path4234_1_" gradientUnits="userSpaceOnUse" x1="14.5039" y1="614.9152" x2="17.3453" y2="616.2788" gradientTransform="matrix(0.3916 0 0 -0.7827 34.119 1209.9434)">
			<stop  offset="0" style="stop-color:#212A3A"/>
			<stop  offset="1" style="stop-color:#404E67;stop-opacity:0"/>
		</linearGradient>
		
			<path id="path4234" inkscape:export-filename="/home/emcho/storage/images/sc_logo/sc_logo136x203.png" inkscape:export-xdpi="19.25" inkscape:export-ydpi="19.25" sodipodi:nodetypes="csss" class="st15" d="
			M40.1,728.4c-0.1,0.1-0.2,0.2-0.3,0.2c0,0,0-0.1,0.1-0.2C40,728.4,40.1,728.4,40.1,728.4z"/>
		
			<linearGradient id="path4236_1_" gradientUnits="userSpaceOnUse" x1="-66.6484" y1="790.6569" x2="-65.072" y2="790.449" gradientTransform="matrix(-0.3905 -2.961418e-02 -5.919454e-02 0.7805 60.8953 109.8207)">
			<stop  offset="0" style="stop-color:#212A3A"/>
			<stop  offset="1" style="stop-color:#404E67;stop-opacity:0"/>
		</linearGradient>
		
			<path id="path4236" inkscape:export-filename="/home/emcho/storage/images/sc_logo/sc_logo136x203.png" inkscape:export-xdpi="19.25" inkscape:export-ydpi="19.25" sodipodi:nodetypes="csss" class="st16" d="
			M39.9,729c0.1,0,0.2,0,0.2-0.2c0,0,0,0.1-0.1,0.2C40,729,39.9,729,39.9,729z"/>
		
			<linearGradient id="path4238_1_" gradientUnits="userSpaceOnUse" x1="-24.4416" y1="654.0456" x2="-21.9208" y2="654.5331" gradientTransform="matrix(1.0338 0 0 -1.0338 65.3742 1405.2823)">
			<stop  offset="0" style="stop-color:#212A3A"/>
			<stop  offset="1" style="stop-color:#404E67;stop-opacity:0"/>
		</linearGradient>
		
			<path id="path4238" inkscape:export-filename="/home/emcho/storage/images/sc_logo/sc_logo136x203.png" inkscape:export-xdpi="19.25" inkscape:export-ydpi="19.25" sodipodi:nodetypes="cscss" class="st17" d="
			M40.2,729.1c0.2-0.1,0.3-0.1,0.4-0.1c0.1,0-0.2-0.1-0.5-0.1c0,0-0.1,0.2-0.3,0.3C39.9,729.3,40.2,729.1,40.2,729.1z"/>
		
			<linearGradient id="path4240_1_" gradientUnits="userSpaceOnUse" x1="44.6385" y1="671.2469" x2="42.9435" y2="670.4317" gradientTransform="matrix(1.0338 0 0 -1.0338 -7.3858 1423.4155)">
			<stop  offset="0" style="stop-color:#212A3A"/>
			<stop  offset="1" style="stop-color:#404E67;stop-opacity:0"/>
		</linearGradient>
		
			<path id="path4240" inkscape:export-filename="/home/emcho/storage/images/sc_logo/sc_logo136x203.png" inkscape:export-xdpi="19.25" inkscape:export-ydpi="19.25" sodipodi:nodetypes="csccscs" class="st18" d="
			M38.8,729.4c0.1,0,0.2,0,0.3-0.1c0.1,0,0.1,0,0.2,0c0,0-0.1-0.1-0.1-0.2c0,0.1-0.1,0.1-0.1,0.1c-0.5,0.1-0.7,0.2-0.9,0.4
			C38.4,729.5,38.7,729.4,38.8,729.4L38.8,729.4z"/>
	</g>
</g>
</svg>
